<svg width="18" height="12" viewBox="0 0 18 12" fill="none" xmlns="http://www.w3.org/2000/svg">
<path d="M10.7711 2.51137L13.9144 5.5299L1.12788 5.5299C0.600719 5.5299 0.173338 5.94032 0.173338 6.44656C0.173338 6.95281 0.600719 7.36323 1.12788 7.36323L13.9144 7.36323L10.7711 10.3818C10.5847 10.5607 10.4915 10.7953 10.4915 11.0299C10.4915 11.2645 10.5847 11.4991 10.7711 11.678C11.1438 12.036 11.7483 12.036 12.121 11.678L16.8938 7.09471C17.2665 6.73678 17.2665 6.15635 16.8938 5.79836L12.121 1.21502C11.7483 0.857036 11.1439 0.857036 10.7711 1.21502C10.3984 1.57301 10.3984 2.15345 10.7711 2.51137Z" fill="white"/>
</svg>
