<svg width="52" height="36" viewBox="0 0 52 36" fill="none" xmlns="http://www.w3.org/2000/svg">
<rect x="0.751716" y="0.749519" width="49.5005" height="34.5003" rx="5.25005" fill="white" stroke="#D9D9D9" stroke-width="1.50001"/>
<path fill-rule="evenodd" clip-rule="evenodd" d="M37.3072 17.9022C37.3072 24.4758 31.9782 29.8048 25.4046 29.8048C18.8309 29.8048 13.502 24.4758 13.502 17.9022C13.502 11.3286 18.8309 5.99957 25.4046 5.99957C31.9782 5.99957 37.3072 11.3286 37.3072 17.9022ZM28.2641 13.48C29.9198 14.0485 31.1309 14.8999 30.8933 16.4843C30.7207 17.6445 30.0752 18.2056 29.2175 18.4021C30.3942 19.0123 30.7953 20.1704 30.4226 21.5708C29.7151 23.5861 28.0332 23.7558 25.7962 23.3346L25.2531 25.5009L23.9418 25.1749L24.4775 23.0376C24.1376 22.9535 23.7901 22.8635 23.4323 22.7675L22.8943 24.9152L21.5845 24.5893L22.127 22.4185L19.4858 21.7546L20.1373 20.2588C20.1373 20.2588 21.1041 20.5141 21.0907 20.4955C21.462 20.587 21.6271 20.3459 21.6921 20.1859L23.164 14.306C23.1805 14.0284 23.0841 13.6787 22.5528 13.5462C22.573 13.5321 21.6002 13.3103 21.6002 13.3103L21.9491 11.9149L24.5941 12.5676L25.132 10.4213L26.4425 10.7473L25.9158 12.8511C26.2685 12.9307 26.6226 13.0119 26.967 13.0974L27.49 11.007L28.8013 11.333L28.2641 13.48ZM25.1262 17.0602C26.0194 17.297 27.963 17.8123 28.3018 16.4612C28.6474 15.0789 26.7591 14.6614 25.8345 14.457L25.8345 14.457L25.8344 14.4569C25.7297 14.4338 25.6373 14.4134 25.562 14.3946L24.909 17.0037C24.9712 17.0191 25.0443 17.0385 25.1262 17.0602ZM24.1143 21.2609C25.1842 21.5427 27.524 22.1591 27.8963 20.6703C28.2774 19.1481 26.0088 18.641 24.9019 18.3936C24.7782 18.366 24.669 18.3416 24.5797 18.3194L23.8594 21.1949C23.9325 21.2131 24.0182 21.2356 24.1141 21.2609L24.1143 21.2609Z" fill="#F7931A"/>
</svg>
