<svg width="200" height="200" viewBox="0 0 200 200" fill="none" xmlns="http://www.w3.org/2000/svg">
<g filter="url(#filter0_d_154_132)">
<rect x="50" y="46" width="100" height="100" rx="15" fill="#0393FB"/>
</g>
<g clip-path="url(#clip0_154_132)">
<path d="M109.883 86.1156C110.268 86.5006 110.893 86.5006 111.278 86.1156L122.709 74.6835C123.094 74.2985 123.094 73.6744 122.709 73.2888C122.325 72.9037 121.7 72.9037 121.315 73.2888L109.883 84.7208C109.498 85.1059 109.498 85.7305 109.883 86.1156Z" fill="white"/>
<path d="M119.763 94.7621L118.509 80.9765L115.067 84.4182C115.267 85.696 114.877 87.0489 113.893 88.0334C112.256 89.6697 109.603 89.6703 107.967 88.0334C106.33 86.3971 106.33 83.7432 107.967 82.1069C108.951 81.1224 110.303 80.7329 111.58 80.9326L115.023 77.4899L101.237 76.236C100.695 76.1873 100.158 76.381 99.7727 76.7665L77.5377 99.0015C76.8214 99.7184 76.8208 100.88 77.5377 101.596L82.4836 106.543L84.924 104.102L91.8962 111.074L89.4563 113.514L94.4022 118.46C95.1191 119.177 96.2801 119.177 96.9964 118.46L119.233 96.2253C119.617 95.8398 119.811 95.3034 119.763 94.7621Z" fill="white"/>
</g>
<defs>
<filter id="filter0_d_154_132" x="0" y="0" width="200" height="200" filterUnits="userSpaceOnUse" color-interpolation-filters="sRGB">
<feFlood flood-opacity="0" result="BackgroundImageFix"/>
<feColorMatrix in="SourceAlpha" type="matrix" values="0 0 0 0 0 0 0 0 0 0 0 0 0 0 0 0 0 0 127 0" result="hardAlpha"/>
<feOffset dy="4"/>
<feGaussianBlur stdDeviation="25"/>
<feComposite in2="hardAlpha" operator="out"/>
<feColorMatrix type="matrix" values="0 0 0 0 0.0117647 0 0 0 0 0.576471 0 0 0 0 0.984314 0 0 0 0.5 0"/>
<feBlend mode="normal" in2="BackgroundImageFix" result="effect1_dropShadow_154_132"/>
<feBlend mode="normal" in="SourceGraphic" in2="effect1_dropShadow_154_132" result="shape"/>
</filter>
<clipPath id="clip0_154_132">
<rect width="45.998" height="45.998" fill="white" transform="translate(77 73)"/>
</clipPath>
</defs>
</svg>
