<svg width="76" height="75" viewBox="0 0 76 75" fill="none" xmlns="http://www.w3.org/2000/svg">
<g clip-path="url(#clip0_1_1758)">
<rect width="74.8597" height="73.9959" rx="20.2369" transform="matrix(1 0 0 -1 0.284363 74.2419)" fill="white"/>
<path d="M51.2191 25.0799C48.6874 23.9183 45.9726 23.0624 43.134 22.5722C43.0823 22.5628 43.0307 22.5864 43.0041 22.6337C42.6549 23.2547 42.2682 24.0649 41.9973 24.7016C38.9443 24.2446 35.9069 24.2446 32.9165 24.7016C32.6456 24.0507 32.2448 23.2547 31.8941 22.6337C31.8674 22.588 31.8158 22.5644 31.7641 22.5722C28.9271 23.0609 26.2123 23.9167 23.679 25.0799C23.6571 25.0894 23.6383 25.1052 23.6258 25.1256C18.4763 32.8189 17.0656 40.323 17.7577 47.7342C17.7608 47.7704 17.7811 47.8051 17.8093 47.8271C21.2068 50.3222 24.4979 51.8369 27.7278 52.8409C27.7795 52.8567 27.8343 52.8378 27.8672 52.7952C28.6312 51.7518 29.3123 50.6516 29.8963 49.4947C29.9307 49.427 29.8978 49.3466 29.8274 49.3198C28.7471 48.91 27.7184 48.4103 26.7289 47.8429C26.6506 47.7972 26.6444 47.6853 26.7164 47.6317C26.9246 47.4756 27.1329 47.3133 27.3317 47.1494C27.3677 47.1194 27.4178 47.1131 27.4601 47.132C33.9607 50.1 40.9984 50.1 47.4223 47.132C47.4646 47.1115 47.5148 47.1179 47.5523 47.1478C47.7512 47.3117 47.9594 47.4756 48.1692 47.6317C48.2412 47.6853 48.2365 47.7972 48.1582 47.8429C47.1687 48.4213 46.1401 48.91 45.0582 49.3182C44.9878 49.345 44.9564 49.427 44.9909 49.4947C45.5874 50.65 46.2685 51.7502 47.0184 52.7936C47.0497 52.8378 47.1061 52.8567 47.1578 52.8409C50.4034 51.8369 53.6944 50.3222 57.0919 47.8271C57.1217 47.8051 57.1405 47.772 57.1436 47.7357C57.9718 39.1677 55.7564 31.725 51.2707 25.1272C51.2598 25.1052 51.241 25.0894 51.2191 25.0799ZM30.867 43.2216C28.9099 43.2216 27.2973 41.4248 27.2973 39.2181C27.2973 37.0115 28.8786 35.2147 30.867 35.2147C32.871 35.2147 34.468 37.0273 34.4367 39.2181C34.4367 41.4248 32.8554 43.2216 30.867 43.2216ZM44.0656 43.2216C42.1085 43.2216 40.4959 41.4248 40.4959 39.2181C40.4959 37.0115 42.0772 35.2147 44.0656 35.2147C46.0696 35.2147 47.6666 37.0273 47.6353 39.2181C47.6353 41.4248 46.0696 43.2216 44.0656 43.2216Z" fill="#5865F2"/>
</g>
<defs>
<clipPath id="clip0_1_1758">
<rect width="74.8597" height="73.9959" fill="white" transform="translate(0.283539 0.246094)"/>
</clipPath>
</defs>
</svg>
