<svg width="188" height="439" viewBox="0 0 188 439" fill="none" xmlns="http://www.w3.org/2000/svg">
<path d="M140.699 38.4343C140.699 38.4343 148.461 17.113 141.634 10.0995C134.808 3.08591 123.399 -6.10352e-05 113.673 -6.10352e-05C104.041 -6.10352e-05 96.9344 10.7541 96.9344 10.7541C96.9344 10.7541 102.919 24.7812 113.86 33.104C124.895 41.3332 140.699 38.4343 140.699 38.4343Z" fill="#0393FB"/>
<path d="M140.699 38.4343C140.699 38.4343 149.396 47.5052 149.583 50.4042C149.676 53.3031 137.987 53.6772 129.851 47.9728C121.716 42.2684 112.925 32.2624 112.925 32.2624C112.925 32.2624 131.909 26.4645 140.699 38.4343Z" fill="#0393FB"/>
<path d="M140.699 38.4344C140.699 38.4344 149.396 47.5053 149.583 50.4042C149.676 52.0874 145.655 52.9291 140.793 52.181C141.073 46.3831 134.808 38.9019 134.808 38.9019L138.829 36.19C139.483 36.9381 140.138 37.5927 140.699 38.4344Z" fill="#00499F"/>
<path d="M124.427 8.51009C129.477 7.20089 139.016 10.3804 142.85 11.7831C147.432 20.0123 140.699 38.4346 140.699 38.4346C140.699 38.4346 124.895 41.3336 113.86 33.1043C111.242 31.1405 108.81 28.8027 106.753 26.3713C110.213 21.7891 119.378 9.81929 124.427 8.51009Z" fill="white"/>
<path d="M140.699 38.4343C140.699 38.4343 138.361 38.9019 134.714 38.9019C146.216 23.5655 142.756 11.6892 142.756 11.6892C147.432 19.9185 140.699 38.4343 140.699 38.4343Z" fill="#E6E6E6"/>
<path d="M45.9691 191.798C48.1199 181.418 59.3416 128.489 67.1033 126.057C75.7066 123.346 85.058 140.459 80.1953 162.341C75.3325 184.13 65.5136 199.56 65.5136 199.56C57.5649 222.658 32.5966 245.569 32.5966 245.569L24.1803 237.059C28.669 225.837 41.3869 200.682 45.9691 191.798Z" fill="#FFCFB6"/>
<path d="M52.4216 198.25C52.7956 190.208 51.0188 183.756 48.7745 178.893C53.1697 159.629 61.1184 127.928 67.1033 126.057C75.7066 123.346 85.058 140.459 80.1953 162.341C75.3325 184.13 65.5136 199.56 65.5136 199.56C60.2768 214.709 47.8394 229.671 39.8907 238.274C45.5015 225.182 51.954 208.63 52.4216 198.25Z" fill="#FFADA5"/>
<path d="M28.1036 190.814L79.4343 232.033L51.3307 267.031L-5.99176e-05 225.812L28.1036 190.814Z" fill="#C69C6D"/>
<path d="M28.549 194.889L75.3591 232.478L50.827 263.029L4.01684 225.44L28.549 194.889Z" fill="white"/>
<path d="M19.5982 201.335L22.2166 203.393C23.5258 204.421 23.7128 206.385 22.6842 207.601L15.203 216.859C14.1744 218.168 12.2106 218.355 10.9949 217.326L8.37652 215.269L19.5982 201.335Z" fill="#0E1F28"/>
<path d="M16.8862 203.86L18.3824 205.076C19.1305 205.731 19.2241 206.759 18.663 207.601L14.3613 213.025C13.7067 213.773 12.6781 213.866 11.8364 213.305L10.3402 212.09L16.8862 203.86Z" fill="#BDCCD4"/>
<path d="M14.5488 208.724C14.7358 208.443 15.2034 208.443 15.4839 208.63C15.7645 208.817 15.7644 209.285 15.5774 209.566C15.3904 209.846 14.9228 209.846 14.6423 209.659C14.3617 209.379 14.2682 209.004 14.5488 208.724Z" fill="#0E1F28"/>
<path d="M15.4837 227.8L33.8125 204.889" stroke="#BDCCD4" stroke-width="0.307577" stroke-miterlimit="10"/>
<path d="M18.0084 229.857L36.3372 206.946" stroke="#BDCCD4" stroke-width="0.307577" stroke-miterlimit="10"/>
<path d="M26.8925 223.966L38.9558 209.003" stroke="#BDCCD4" stroke-width="0.307577" stroke-miterlimit="10"/>
<path d="M32.8772 230.98L36.3373 233.786C37.4594 234.721 37.6464 236.311 36.7113 237.433L33.9059 240.893C32.9707 242.015 31.381 242.202 30.2588 241.267L26.7988 238.461C25.6766 237.526 25.4896 235.937 26.4247 234.814L29.2302 231.354C30.1653 230.326 31.755 230.139 32.8772 230.98Z" stroke="#BDCCD4" stroke-width="0.307577" stroke-miterlimit="10"/>
<path d="M29.642 238.753L32.9906 238.243L31.9948 231.636" stroke="#BDCCD4" stroke-width="1.23031" stroke-miterlimit="10"/>
<path d="M15.5769 238.274C15.5769 238.274 12.2104 238.087 12.2104 236.03C12.2104 233.973 13.052 227.52 14.4547 228.549C16.7926 230.232 15.5769 238.274 15.5769 238.274Z" fill="#FFCFB6"/>
<path d="M16.2316 240.893C14.7354 240.144 15.2965 238.835 15.764 236.497C16.5122 232.57 17.1668 228.829 18.0084 229.11C20.6268 229.858 18.7565 238.461 18.7565 238.461C18.7565 238.461 20.1592 231.635 21.3749 232.944C23.3387 235.001 21.3749 241.173 21.3749 241.173C21.3749 241.173 22.9646 238.087 23.8063 238.461C24.6479 238.835 23.8998 244.914 23.8998 244.914L25.209 245.942C25.209 245.942 23.5257 246.597 22.123 246.316C20.7203 246.036 20.3462 244.166 20.3462 244.166C20.3462 244.166 18.2889 244.446 17.8214 243.979C17.3538 243.511 17.5408 241.08 17.5408 241.08C17.5408 241.08 16.5122 241.08 16.2316 240.893Z" fill="#FFCFB6"/>
<path d="M15.4836 230.326C16.3252 233.225 15.5771 238.368 15.5771 238.368C15.5771 238.368 14.2679 238.274 13.3328 237.807C15.1095 236.123 15.3901 232.289 15.4836 230.326Z" fill="#FFADA5"/>
<path d="M21.0009 245.662C21.3749 245.662 21.8425 245.568 22.3101 245.381C23.1517 245.101 23.8063 242.108 24.1803 240.425C24.1803 242.295 23.8063 244.914 23.8063 244.914L25.1155 245.942C25.1155 245.942 23.4322 246.597 22.0295 246.316C21.6555 246.316 21.2814 246.036 21.0009 245.662Z" fill="#FFADA5"/>
<path d="M17.7277 244.072C17.7277 244.072 17.7277 243.978 17.6342 243.978C18.0083 243.885 18.3823 243.604 18.8499 243.324C19.785 242.669 21.4683 236.217 21.9359 234.159C22.684 236.778 21.2812 241.173 21.2812 241.173C20.1591 242.95 20.2526 244.259 20.2526 244.259C20.2526 244.259 18.1953 244.633 17.7277 244.072Z" fill="#FFADA5"/>
<path d="M18.7566 238.368C18.8501 238.181 18.9436 237.62 19.0371 237.059C18.8501 237.9 18.663 238.555 18.663 238.555L17.3539 241.173C17.3539 241.173 16.5122 241.08 16.2317 240.986C17.9149 239.49 18.9436 235.188 19.3176 233.318C19.3176 235.469 18.8501 237.807 18.7566 238.368Z" fill="#FFADA5"/>
<path d="M69.5348 115.677C64.1109 117.828 59.9028 131.107 52.5152 144.947C45.1275 158.787 41.9481 160.845 41.9481 160.845C41.9481 160.845 55.3206 178.893 76.3613 179.08C76.3613 179.08 83.9359 164.772 84.4035 146.911C84.9646 129.143 69.5348 115.677 69.5348 115.677Z" fill="#0393FB"/>
<path d="M51.4866 169.916C66.6359 150.184 69.6283 121.662 69.6283 121.662L81.1305 131.575C83.1879 136.063 84.5906 141.3 84.4971 146.911C84.0295 164.772 76.4548 179.08 76.4548 179.08C65.9812 178.986 57.4715 174.498 51.4866 169.916Z" fill="#00499F"/>
<path d="M44.6602 157.852C44.6602 157.852 52.1413 166.736 71.4988 174.03" stroke="#0E1F28" stroke-width="0.615155" stroke-miterlimit="10"/>
<path d="M146.403 419.505C146.403 419.505 151.453 424.648 154.539 428.482C157.625 432.316 158.747 438.114 158.747 438.114H127.794C127.794 438.114 124.054 429.417 129.384 419.505H146.403Z" fill="#0393FB"/>
<path d="M80.3823 419.505C80.3823 419.505 87.0218 429.043 84.7775 438.114H31.3809C31.3809 438.114 29.6976 430.446 38.675 428.389C58.4065 423.9 61.3054 419.411 61.3054 419.411H80.3823V419.505Z" fill="#0393FB"/>
<path d="M124.053 205.918L146.497 419.505H129.384C129.384 419.505 97.7759 272.22 87.6764 205.825C87.7699 205.825 108.25 205.918 124.053 205.918Z" fill="#FFCFB6"/>
<path d="M94.4094 205.918L86.0867 325.71L80.4758 419.598H61.3054C61.3054 419.598 56.5362 272.313 58.0324 205.918C58.0324 205.825 78.6055 205.918 94.4094 205.918Z" fill="#FFCFB6"/>
<path d="M157.906 435.122C158.467 436.898 158.747 438.207 158.747 438.207H127.794C127.794 438.207 127.327 437.085 126.952 435.122H157.906Z" fill="#295A8E"/>
<path d="M84.7775 438.114H31.381C31.381 438.114 31.1004 436.805 31.381 435.028H85.2451C85.1516 436.057 85.0581 437.085 84.7775 438.114Z" fill="#295A8E"/>
<path d="M38.6751 428.482C41.2935 427.921 43.5378 427.266 45.5951 426.705C47.746 428.95 49.0552 431.942 49.0552 435.309C49.0552 436.244 48.9617 437.272 48.6811 438.114H31.2875C31.381 438.114 29.6977 430.539 38.6751 428.482Z" fill="#295A8E"/>
<path d="M158.467 438.114H134.434C134.247 437.179 134.06 436.244 134.06 435.309C134.06 428.482 139.577 422.965 146.403 422.965C147.713 422.965 148.928 423.152 150.144 423.526C151.547 425.116 153.23 426.892 154.446 428.482C156.97 431.568 158.093 435.87 158.467 437.459C158.56 437.74 158.56 437.927 158.467 438.114Z" fill="#295A8E"/>
<path d="M143.504 391.357L146.497 419.505H129.384C129.384 419.505 126.578 405.478 123.399 391.357H143.504Z" fill="#295A8E"/>
<path d="M83.1877 391.357L80.3823 419.505H61.2119C61.2119 419.505 60.8379 408.564 60.3703 391.357H83.1877Z" fill="#295A8E"/>
<path d="M146.497 419.505C146.497 419.505 142.569 409.405 134.153 419.505H146.497Z" fill="#0393FB"/>
<path d="M69.6282 419.505C69.6282 419.505 68.5995 414.268 61.1184 414.268L61.3989 419.505H69.6282Z" fill="#0393FB"/>
<path d="M130.506 205.918C130.506 205.918 134.621 284.283 141.447 309.345C159.683 376.208 152.95 417.728 152.95 417.728H125.363C125.363 417.728 97.0282 271.659 86.9286 205.825C86.8351 205.825 114.702 205.918 130.506 205.918Z" fill="#0E1F28"/>
<path d="M55.0401 205.825C55.0401 205.825 82.8138 205.918 98.6177 205.918C98.6177 205.918 88.4246 285.125 91.2301 311.402C98.1501 376.675 81.037 417.728 81.037 417.728H56.0687C56.0687 417.728 53.5438 271.659 55.0401 205.825Z" fill="#0E1F28"/>
<path d="M140.886 120.82C146.965 120.353 166.135 130.546 183.248 131.855C183.248 131.855 195.031 168.513 177.263 172.534C159.495 176.555 141.915 162.715 132.189 155.608C132.189 155.701 134.247 121.381 140.886 120.82Z" fill="#0393FB"/>
<path d="M116.292 111.936C121.248 114.461 140.886 120.82 140.886 120.82C140.886 120.82 136.398 139.149 134.714 159.255C133.125 178.332 139.203 205.731 130.506 205.825C130.506 205.825 82.2529 222.283 54.5727 205.825C48.7748 196.473 54.9467 170.383 69.6284 115.677C69.6284 115.677 86.648 113.246 93.9421 111.188L116.292 111.936Z" fill="#0393FB"/>
<path d="M110.868 104.081C110.868 104.081 120.407 105.484 121.996 110.814C123.68 116.145 117.321 127.553 117.321 127.553C117.321 127.553 110.307 118.857 108.343 118.389C106.38 117.921 99.74 118.857 99.74 118.857C99.74 118.857 94.9708 116.893 91.8848 116.706C88.7989 116.519 82.814 124 82.814 124C82.814 124 85.5259 110.44 89.4535 106.793C93.3811 103.146 110.868 104.081 110.868 104.081Z" fill="#0E1F28"/>
<path d="M159.308 130.92L158.56 125.964C166.135 128.582 174.832 131.294 183.154 131.855C183.154 131.855 183.715 133.538 184.37 136.157C186.427 148.033 187.456 163.182 180.255 167.858C167.818 175.807 159.308 130.92 159.308 130.92Z" fill="#0E1F28"/>
<path d="M115.824 88.745C115.824 88.745 113.393 105.765 116.292 111.937C116.292 111.937 110.401 116.799 99.74 118.763C99.74 118.763 95.7189 117.173 94.0356 111.188C94.0356 111.188 98.4308 102.866 98.5243 88.745H115.824V88.745Z" fill="#FFCFB6"/>
<path d="M96.5605 104.081C97.5892 100.341 98.4308 95.104 98.5243 88.745H115.824C115.824 88.745 115.544 90.7088 115.263 93.4207C112.645 98.2834 107.034 104.829 96.5605 104.081Z" fill="#FFADA5"/>
<path d="M90.2951 68.3587C90.2951 68.3587 87.1156 62.3738 88.4248 56.5759C89.8275 50.7781 96.9346 50.3105 96.9346 50.3105L90.2951 68.3587Z" fill="#0E1F28"/>
<path d="M91.8848 74.6241C91.8848 74.6241 89.2664 66.6754 87.4896 68.6392C85.8064 70.6029 88.7053 83.4144 91.8848 83.6949V74.6241Z" fill="#FFADA5"/>
<path d="M112.645 48.4403C99.6464 46.4765 90.482 49.7495 89.4533 67.0496C88.4247 84.3497 91.6042 94.7298 96.0928 98.0028C100.582 101.276 114.702 96.6001 120.22 88.7449C125.737 80.8897 130.038 67.2367 125.924 58.1658C121.809 49.0949 112.645 48.4403 112.645 48.4403Z" fill="#FFCFB6"/>
<path d="M100.956 67.1432C100.956 67.1432 99.9269 72.006 98.7112 73.1282C97.402 74.2503 94.2225 74.4374 95.9993 76.4011C97.7761 78.2714 99.7399 79.0195 102.265 76.6817C103.48 75.5595 100.956 67.1432 100.956 67.1432Z" fill="#FFADA5"/>
<path d="M112.925 65.4598C113.487 65.4598 113.954 66.1144 113.954 66.8626C113.954 67.6107 113.487 68.2653 112.925 68.2653C112.364 68.2653 111.897 67.6107 111.897 66.8626C111.897 66.1144 112.364 65.4598 112.925 65.4598Z" fill="#0E1F28"/>
<path d="M95.9994 64.0573C96.5605 64.0573 97.0281 64.7119 97.0281 65.46C97.0281 66.2081 96.5605 66.8627 95.9994 66.8627C95.4383 66.8627 94.9708 66.2081 94.9708 65.46C94.9708 64.6183 95.4383 64.0573 95.9994 64.0573Z" fill="#0E1F28"/>
<path d="M119.004 63.87L110.494 60.7841C110.494 60.7841 111.71 57.7916 113.112 57.9786C114.609 58.1657 119.658 61.1581 119.004 63.87Z" fill="#0E1F28"/>
<path d="M112.645 48.4404C112.645 48.4404 118.817 48.908 123.305 54.1448C120.594 53.4902 114.609 52.555 107.689 55.7345C100.207 59.1945 95.8123 62.187 90.2949 60.7843C93.0068 49.0015 101.423 46.7571 112.645 48.4404Z" fill="#FFADA5"/>
<path d="M100.021 58.8202C100.021 58.8202 97.1216 57.9786 94.0356 58.8202C94.0356 58.8202 94.6902 56.9499 95.9994 56.3889C97.2151 55.7343 100.021 54.4251 100.021 58.8202Z" fill="#0E1F28"/>
<path d="M98.8048 82.386C98.8048 82.386 104.229 84.9109 110.868 79.7676" stroke="#EA695D" stroke-width="0.615155" stroke-miterlimit="10"/>
<path d="M124.521 55.8279C124.521 55.8279 116.385 61.0647 112.925 60.5036C109.465 59.9425 108.343 57.0436 108.343 57.0436C108.343 57.0436 120.033 57.2306 123.306 54.2382C123.306 54.2382 117.508 50.03 102.171 55.2668C86.835 60.5036 78.4187 52.1808 80.5695 43.9516C80.5695 43.9516 82.1593 44.4192 85.5258 42.8294C88.8923 41.2397 96.654 36.377 102.826 39.2759C102.826 39.2759 102.826 37.1251 97.2151 37.1251C97.2151 37.1251 100.208 32.1688 109.185 35.0678C118.162 37.9667 128.916 46.57 128.542 52.929C128.542 52.929 129.197 49.0949 132.189 47.8792C132.189 47.8792 132.096 49.3754 132.189 52.3679C132.283 55.3603 131.067 55.6409 131.067 55.6409C131.067 55.6409 134.621 55.5474 137.613 63.122C140.606 70.6031 139.39 71.8188 133.312 75.8399C127.233 79.8611 122.277 85.1914 122.277 85.1914L126.204 75.1853C126.204 75.1853 122.838 73.7826 122.183 67.3301C121.435 60.9712 124.521 55.8279 124.521 55.8279Z" fill="#0E1F28"/>
<path d="M126.204 69.2941C130.693 72.7541 134.527 69.2941 134.527 69.2941C134.527 69.2941 136.585 71.0709 138.642 71.5385C137.8 73.0347 136.023 74.2504 133.405 75.9336C127.327 79.9547 122.37 85.285 122.37 85.285L126.298 75.279C126.298 75.279 122.931 73.8763 122.277 67.4238C121.622 60.9714 124.708 55.7346 124.708 55.7346C124.708 55.7346 121.716 65.8341 126.204 69.2941Z" fill="#040F16"/>
<path d="M97.3084 37.2187C107.688 33.1976 124.521 50.3107 124.521 50.3107C124.521 50.3107 108.53 40.6787 102.919 39.3695C102.826 39.276 102.826 37.2187 97.3084 37.2187Z" fill="#040F16"/>
<path d="M112.925 60.5036C109.465 59.9425 108.343 57.0436 108.343 57.0436C108.343 57.0436 120.032 57.2306 123.305 54.2382L115.263 60.2231C114.422 60.5036 113.58 60.5971 112.925 60.5036Z" fill="#040F16"/>
<path d="M96.5603 47.5054C93.3809 50.1238 87.0219 50.2173 87.0219 50.2173C91.6976 54.1449 95.5317 49.9367 107.034 49.1886C118.443 48.347 123.399 54.2384 123.399 54.2384C123.399 54.2384 117.601 50.0303 102.265 55.2671C86.9284 60.5039 78.5121 52.1811 80.6629 43.9518C82.7202 50.0303 96.5603 47.5054 96.5603 47.5054Z" fill="#040F16"/>
<path d="M124.895 76.9621C124.895 76.9621 131.815 66.7691 133.124 73.4086C134.434 80.0481 122.651 88.932 118.91 86.033L124.895 76.9621Z" fill="#FFCFB6"/>
<path d="M124.054 81.3571C124.054 81.3571 129.477 73.2214 129.852 74.9981C130.226 76.7749 121.342 87.155 124.054 81.3571Z" fill="#FFADA5"/>
<path d="M64.0176 135.128C64.0176 135.128 57.7521 155.608 54.5726 176.087" stroke="#0E1F28" stroke-width="0.615155" stroke-miterlimit="10"/>
<path d="M89.4532 216.859L93.9419 248.467" stroke="white" stroke-width="0.615155" stroke-miterlimit="10"/>
<path d="M124.989 184.971C128.262 161.499 133.311 153.737 133.311 153.737L134.808 157.945C134.808 158.413 134.714 158.881 134.714 159.442C133.124 178.519 139.203 205.918 130.506 206.012C130.506 206.012 111.242 212.558 90.0143 213.212C90.7625 213.025 121.716 208.069 124.989 184.971Z" fill="#00499F"/>
<path d="M130.88 211.716C130.88 211.716 84.2165 226.024 54.8531 211.529" stroke="white" stroke-width="0.615155" stroke-miterlimit="10"/>
<path d="M134.808 157.572C134.808 157.572 125.456 138.214 134.808 123.252" stroke="#0E1F28" stroke-width="0.615155" stroke-miterlimit="10"/>
<path d="M99.74 118.857C99.74 118.857 95.5319 131.855 93.9421 147.659" stroke="#0E1F28" stroke-width="0.615155" stroke-miterlimit="10"/>
<path d="M80.6631 144.012C80.6631 144.012 68.5063 146.537 62.2408 143.919" stroke="#0E1F28" stroke-width="0.615155" stroke-miterlimit="10"/>
<path d="M65.3268 129.517C65.3268 129.517 67.9452 120.446 69.6284 115.771" stroke="#0E1F28" stroke-width="0.615155" stroke-miterlimit="10"/>
<path d="M161.085 127.553C161.085 127.553 151.734 144.012 169.501 170.476" stroke="#0E1F28" stroke-width="0.615155" stroke-miterlimit="10"/>
<path d="M159.121 66.2081L149.677 70.8838C149.677 70.8838 157.251 113.339 158.934 127.553C160.618 141.861 167.164 148.688 174.832 147.472C182.5 146.35 187.269 136.718 184.838 126.618C182.219 116.612 163.236 79.3001 159.121 66.2081Z" fill="#FFCFB6"/>
<path d="M159.121 66.2081C159.121 66.2081 162.301 55.9216 161.179 52.5551C160.056 49.1886 144.814 42.175 142.85 41.8944C140.886 41.6139 140.512 49.5626 141.167 52.181C141.821 54.7994 139.296 57.6983 139.203 60.5973C139.109 63.4962 149.583 70.8839 149.583 70.8839L159.121 66.2081Z" fill="#FFCFB6"/>
<path d="M140.699 55.3605C141.073 54.2383 141.354 53.1161 141.073 52.0875C141.821 54.9864 143.878 55.828 144.72 53.0226C144.72 53.0226 144.627 58.6335 147.806 55.2669C147.806 55.2669 149.396 59.8491 151.734 56.8567C151.734 56.8567 152.108 59.6621 153.323 60.1297C154.539 60.5973 157.438 57.6048 157.438 57.6048L155.194 65.46V60.5037C155.194 60.5037 151.173 63.4027 150.986 58.727C150.986 58.727 147.338 61.9065 147.245 57.3243C147.245 57.3243 144.252 60.0362 144.065 55.7345C144.159 55.828 142.102 58.3529 140.699 55.3605Z" fill="#FFADA5"/>
<path d="M151.827 56.8568C151.36 54.5189 152.575 48.4405 152.575 48.4405C152.575 48.4405 149.77 53.2097 150.986 58.7271L151.827 56.8568Z" fill="#FFADA5"/>
<path d="M147.9 55.2671C147.245 53.2098 149.209 47.973 149.209 47.973C149.209 47.973 145.655 52.8357 147.432 57.3244L147.9 55.2671Z" fill="#FFADA5"/>
<path d="M139.203 60.5037C139.203 60.5037 139.67 53.0226 141.167 52.0874C142.663 51.1523 147.993 46.196 148.087 47.9728C148.18 49.7496 146.216 54.0512 143.691 55.2669C143.691 55.2669 146.216 56.6696 146.964 64.2443L139.203 60.5037Z" fill="#FFCFB6"/>
<path d="M94.2227 245.568C91.8848 269.321 89.8275 297.562 91.2302 311.309C98.1503 376.582 81.0371 417.634 81.0371 417.634H70.5636C75.0523 397.903 83.4685 355.447 82.7204 319.351C81.9723 278.392 91.2302 252.769 94.2227 245.568Z" fill="#040F16"/>
<path d="M177.076 146.817C180.63 136.718 179.133 120.54 176.889 107.354C180.63 115.771 183.716 122.971 184.651 126.712C186.989 135.689 183.342 144.293 177.076 146.817Z" fill="#FFADA5"/>
<path d="M141.447 309.252C159.683 376.114 152.95 417.635 152.95 417.635H145.188C146.778 401.27 147.713 372.841 140.886 338.428C130.132 283.909 130.506 205.918 130.506 205.825C130.506 206.012 134.621 284.19 141.447 309.252Z" fill="#040F16"/>
<path d="M83.0007 410.995H56.1622" stroke="white" stroke-width="0.615155" stroke-miterlimit="10"/>
<path d="M124.428 410.995H153.791" stroke="white" stroke-width="0.615155" stroke-miterlimit="10"/>
<path d="M120.5 214.241C120.5 214.241 121.529 227.894 132.189 234.814" stroke="white" stroke-width="0.615155" stroke-miterlimit="10"/>
<path d="M58.5002 213.119C58.5002 213.119 58.0327 221.348 54.9467 229.204" stroke="white" stroke-width="0.615155" stroke-miterlimit="10"/>
<path d="M106.379 242.576L95.1577 236.497" stroke="white" stroke-width="0.615155" stroke-miterlimit="10"/>
<path d="M89.4534 237.9L82.8139 244.166" stroke="white" stroke-width="0.615155" stroke-miterlimit="10"/>
<path d="M107.221 232.663L90.669 229.484L82.8138 231.074" stroke="white" stroke-width="0.615155" stroke-miterlimit="10"/>
<path d="M136.958 300.18L127.701 302.051" stroke="white" stroke-width="0.615155" stroke-miterlimit="10"/>
<path d="M139.109 304.576L131.535 309.999" stroke="white" stroke-width="0.615155" stroke-miterlimit="10"/>
<path d="M88.5181 300.18L74.9585 302.051" stroke="white" stroke-width="0.615155" stroke-miterlimit="10"/>
<path d="M88.5181 304.576L77.3899 309.999" stroke="white" stroke-width="0.615155" stroke-miterlimit="10"/>
</svg>
