<svg width="80" height="80" viewBox="0 0 80 80" fill="none" xmlns="http://www.w3.org/2000/svg">
<g clip-path="url(#clip0_1_925)">
<path fill-rule="evenodd" clip-rule="evenodd" d="M0 0H79.5248V79.5248H0V0Z" fill="#65BAF8"/>
<path fill-rule="evenodd" clip-rule="evenodd" d="M19.9266 54.8754L18.5696 61.3119H20.0598L21.4159 54.8754H19.9266ZM22.0492 54.8754L21.8099 55.9679H23.8026L22.6747 61.3119H24.1644L25.2924 55.9679H27.2475L27.5401 54.8754H22.0492ZM33.0812 63.0439L31.7524 69.4725H36.1251L36.3356 68.4093H33.4814L34.6131 63.0439H33.0812ZM28.1148 54.8754L26.7582 61.3119H31.4887L31.728 60.1815H28.4902L28.8376 58.5362H31.676L31.898 57.5377H29.0476L29.3809 55.9494H32.6258L32.8915 54.8754H28.1148ZM11.9459 61.3119H13.3288L14.2336 56.7906L15.8615 61.3119H17.6521L19.0086 54.8754H17.6706L16.6755 59.4764L15.1965 54.8754H13.3024L11.9459 61.3119ZM49.47 61.3119H50.9334L53.7409 56.3912L54.3115 60.1992H52.353L51.6723 61.3119H55.9407L54.9332 54.8754H53.2042L49.47 61.3119ZM8.11478 54.8754H6.625L5.73963 59.0696C4.99165 62.2975 10.808 62.0582 11.3868 59.5568L12.3712 54.875H10.9083L10.0303 58.971C9.78237 60.5672 6.7104 61.229 7.31729 58.7049L8.11478 54.8754ZM33.5528 54.8754H36.213C37.3954 54.8754 38.2738 55.0945 38.7346 55.7249C39.6295 56.949 38.8621 59.4125 37.7403 60.3527C36.9032 61.0553 35.8005 61.3123 34.8293 61.3123H32.2227L33.5528 54.8754Z" fill="white"/>
<path fill-rule="evenodd" clip-rule="evenodd" d="M34.8199 55.9681L33.9106 60.2052H34.9482C35.4912 60.2052 36.1855 60.0286 36.7351 59.5236C37.5086 58.812 37.8197 57.4752 37.5482 56.7363C37.3131 56.0956 36.6761 55.9685 36.1769 55.9685H34.8199V55.9681Z" fill="#65BAF8"/>
<path fill-rule="evenodd" clip-rule="evenodd" d="M7.87103 63.0383H4.83866L3.50854 69.4759H4.97151L6.10607 64.0916C6.10607 64.0916 7.1709 63.9868 7.68785 64.2228C7.99892 64.3647 8.13218 64.9778 7.81327 65.4114C7.31943 66.0826 7.03228 66.0682 5.88741 65.9964L5.96703 66.8764C5.96703 66.8764 6.27151 67.0303 6.58382 67.0319C9.95408 67.0558 10.3638 63.0383 7.87103 63.0383ZM55.1211 63.0375L56.122 69.4743H57.7883L61.4792 63.0375H59.9939L57.3027 67.973L56.563 63.0375H55.1211Z" fill="white"/>
<path fill-rule="evenodd" clip-rule="evenodd" d="M48.8134 69.4725H50.2759L51.4249 64.1141H52.5442C54.0464 64.1141 53.4725 65.962 51.6861 65.962H51.3403L52.4308 69.4729H54.086L53.1037 66.7026C55.4363 66.212 55.8142 63.0361 53.0488 63.0361H50.1431L48.8134 69.4725ZM5.04492 61.9688L4.9917 62.3871H74.6112L74.6714 61.9688H5.04492ZM62.2961 54.8756L60.9391 61.312H65.67L65.9085 60.1816H62.6707L63.0189 58.5363H65.8569L66.0785 57.5379H63.2285L63.5618 55.9495H66.8063L67.072 54.8756H62.2961ZM56.2445 54.8756L56.0052 55.9681H57.9979L56.87 61.312H58.3598L59.4877 55.9681H61.4437L61.7354 54.8756H56.2445ZM46.5075 54.8756L46.2678 55.9681H48.2601L47.1326 61.312H48.6219L49.7499 55.9681H51.7055L51.998 54.8756H46.5075ZM13.668 62.9222C15.5464 62.9222 16.8951 64.2478 16.2007 66.816C15.5996 69.0385 13.3726 69.659 12.2318 69.6355C10.9644 69.6091 8.61652 68.6792 9.54191 65.8312C10.4153 63.1454 12.6263 62.9222 13.668 62.9222Z" fill="white"/>
<path fill-rule="evenodd" clip-rule="evenodd" d="M13.6122 64.0196C12.6464 63.9461 11.6278 64.3009 11.0213 65.9372C10.4643 67.4402 11.181 68.4592 12.2322 68.5199C12.8828 68.5578 14.2517 68.354 14.7641 66.523C15.2761 64.6916 14.3095 64.0728 13.6122 64.0196Z" fill="#65BAF8"/>
<path fill-rule="evenodd" clip-rule="evenodd" d="M43.6307 64.1415L43.87 63.0358H41.9545C39.2538 63.0358 38.5999 64.7105 39.8244 65.935L41.4557 67.3443C41.7981 67.7205 41.4936 68.4 40.9214 68.3662H38.5384L38.2991 69.4727H40.8377C43.4525 69.4727 43.5437 67.4648 42.7499 66.7065L41.0237 65.057C40.7432 64.833 40.9247 64.1415 41.5337 64.1415H43.6307ZM21.2279 64.1415L21.4672 63.0358H19.5521C16.8514 63.0358 16.1975 64.7105 17.422 65.935L19.0529 67.3443C19.3957 67.7205 19.0912 68.4 18.519 68.3662H16.136L15.8963 69.4727H18.4344C21.0493 69.4727 21.1409 67.4648 20.3467 66.7065L18.6205 65.057C18.3404 64.833 18.5223 64.1415 19.1308 64.1415H21.2279ZM45.7773 55.9892L46.0166 54.8827H44.1011C41.4 54.8827 40.7465 56.5573 41.9714 57.7818L43.6014 59.1911C43.9447 59.5682 43.6402 60.2469 43.068 60.2131H40.6854L40.4461 61.3196H42.9842C45.5991 61.3196 45.6903 59.3116 44.8965 58.5533L43.1703 56.9047C42.8898 56.6798 43.0721 55.9892 43.6802 55.9892H45.7773ZM71.5187 55.9892L71.7579 54.8827H69.8424C67.1421 54.8827 66.4878 56.5573 67.7127 57.7818L69.3436 59.1911C69.686 59.5682 69.3815 60.2469 68.8093 60.2131H66.4267L66.1875 61.3196H68.7256C71.3404 61.3196 71.4324 59.3116 70.6378 58.5533L68.9116 56.9047C68.6311 56.6798 68.8134 55.9892 69.4216 55.9892H71.5187ZM21.933 63.0367L21.6937 64.1291H23.6864L22.5584 69.4735H24.0482L25.1758 64.1291H27.1313L27.4243 63.0367H21.933ZM24.9043 69.4711H26.3673L29.1744 64.5508L29.7458 68.358H27.7877L27.1062 69.4711H31.3746L30.3675 63.0342H28.638L24.9043 69.4711ZM44.7612 63.0358L43.4051 69.4727H48.1352L48.3744 68.3419H45.1366L45.484 66.6966H48.322L48.5444 65.6981H45.6936L46.0278 64.1093H49.2722L49.5379 63.0358H44.7612ZM69.6505 63.0358L68.2936 69.4727H73.0245L73.2638 68.3419H70.0252L70.3734 66.6966H73.2114L73.433 65.6981H70.5829L70.9167 64.1093H74.1607L74.4264 63.0358H69.6505ZM73.8657 68.4161L73.8385 68.5428H74.1962L73.9986 69.4735H74.1413L74.3398 68.5428H74.6975L74.7239 68.4161H73.8657ZM75.653 69.4735H75.7916L76.0165 68.4161H75.8135L75.32 69.3139L75.2082 68.4161H75.0036L74.7788 69.4735H74.9174L75.1043 68.5758L75.2148 69.4735H75.3555L75.8473 68.5758V68.5766L75.653 69.4735ZM68.9587 63.1456C66.7131 62.4912 63.8507 63.1175 63.1047 66.1747C62.8857 67.0741 62.875 69.5528 66.053 69.6056C66.4573 69.6056 67.3336 69.6307 67.7177 69.4397L68.0279 68.2858C67.605 68.4784 66.9635 68.5209 66.3801 68.5209C65.6573 68.5209 65.1255 68.2556 64.8264 67.8295C64.5265 67.4025 64.2979 66.1581 65.4234 64.7604C66.0327 64.0037 67.2358 63.8152 68.7829 64.2294L68.9587 63.1456ZM61.8353 63.0358L60.4783 69.4727H61.9681L63.3242 63.0358H61.8353ZM48.3154 19.2038C43.6266 18.5932 18.3028 18.8131 14.581 18.849L7.86279 50.0226C18.1477 44.847 27.303 40.3797 37.488 35.5201C50.4369 29.3423 59.345 27.7588 61.1929 27.6689C62.4364 27.6087 61.7313 27.067 61.1405 26.9366C53.9078 25.3416 36.3654 33.4754 36.3654 33.4754L32.5327 21.8467L57.5066 21.8703C56.1286 19.8297 53.3793 19.8635 48.3154 19.2038Z" fill="white"/>
<path fill-rule="evenodd" clip-rule="evenodd" d="M18.3812 9.88965C29.8012 12.396 41.2207 14.9046 52.6396 17.4157C58.1305 18.6262 58.8323 20.5075 58.8323 20.5075C58.8323 20.5075 64.8409 19.7813 65.9433 21.8726C67.3567 24.5518 63.7427 29.6425 63.7427 29.6425L11.8008 50.022H65.7411L74.587 9.88965H18.3812Z" fill="white"/>
<path fill-rule="evenodd" clip-rule="evenodd" d="M57.7313 21.9093C57.7313 21.9093 57.4735 23.3553 52.1353 23.8029C51.646 23.8438 51.5292 24.1565 52.1749 24.1771C52.8193 24.1978 61.7419 23.8904 62.7357 23.9878C63.73 24.0851 63.5972 24.6854 63.4697 25.2667C63.341 25.8476 62.6726 27.589 62.501 27.9979C62.3302 28.4072 62.6565 28.3977 62.9193 28.1307C63.1813 27.8634 64.7845 24.6429 64.8307 23.8813C64.8765 23.1197 64.6042 22.3288 63.3649 22.0557C62.1251 21.7814 57.7313 21.9093 57.7313 21.9093Z" fill="white"/>
</g>
<defs>
<clipPath id="clip0_1_925">
<rect width="79.5248" height="79.5248" fill="white"/>
</clipPath>
</defs>
</svg>
